<?xml version="1.0" encoding="UTF-8"?><svg id="_レイヤー_2" xmlns="http://www.w3.org/2000/svg" viewBox="0 0 336 132.36"><defs><style>.cls-1{fill:#00b900;}.cls-1,.cls-2{stroke-width:0px;}.cls-3{fill:none;stroke:#00b900;stroke-miterlimit:10;}.cls-2{fill:#fff;}</style></defs><g id="_レイヤー_1-2"><g id="_レイヤー_1-2"><rect class="cls-1" x=".5" y=".5" width="335" height="131.36" rx="11.46" ry="11.46"/><path class="cls-2" d="M101.93,45.94c0-15.38-15.42-27.89-34.37-27.89s-34.37,12.51-34.37,27.89c0,13.79,12.23,25.34,28.74,27.52,1.12.24,2.64.74,3.03,1.69.35.87.23,2.23.11,3.11,0,0-.4,2.43-.49,2.94-.15.87-.69,3.4,2.98,1.85s19.79-11.65,27.01-19.96h0c4.98-5.46,7.37-11.01,7.37-17.16h-.01ZM55.44,54.15c0,.37-.3.67-.67.67h-9.63c-.18,0-.34-.07-.46-.19h0c-.12-.13-.19-.29-.19-.47v-14.97c0-.37.3-.67.67-.67h2.41c.37,0,.67.3.67.67v11.89h6.55c.37,0,.67.3.67.67v2.41h-.02ZM61.25,54.15c0,.37-.3.67-.67.67h-2.41c-.37,0-.67-.3-.67-.67v-14.98c0-.37.3-.67.67-.67h2.41c.37,0,.67.3.67.67v14.98ZM77.84,54.15c0,.37-.3.67-.67.67h-2.41c-.06,0-.12,0-.17-.02h0s-.03,0-.05-.02h-.02s-.02,0-.03,0c0,0-.02,0-.03-.02,0,0,0,0-.02,0,0,0-.03-.02-.04-.02h0c-.06-.04-.12-.1-.17-.16l-6.87-9.28v8.89c0,.37-.3.67-.67.67h-2.41c-.37,0-.67-.3-.67-.67v-14.98c0-.37.3-.67.67-.67h2.58s.03,0,.04,0h.02s.03,0,.04.02h.02s.02,0,.03.02c0,0,0,0,.02,0,0,0,.02.02.03.02,0,0,0,0,.02,0,0,0,.02.02.04.03h0s.03.04.04.05h0s.04.04.05.07l6.86,9.27v-8.9c0-.37.3-.67.67-.67h2.41c.37,0,.67.3.67.67v14.98l.02.04ZM91.16,41.58c0,.37-.3.67-.67.67h-6.55v2.53h6.55c.37,0,.67.3.67.67v2.41c0,.37-.3.67-.67.67h-6.55v2.53h6.55c.37,0,.67.3.67.67v2.41c0,.37-.3.67-.67.67h-9.63c-.18,0-.34-.07-.46-.19h0c-.12-.13-.19-.29-.19-.47v-14.97c0-.18.07-.34.19-.46h0c.12-.13.28-.2.46-.2h9.63c.37,0,.67.3.67.67v2.41-.02Z"/><path class="cls-2" d="M.5,100.21v20.76c0,6.01,4.87,10.89,10.89,10.89h313.22c6.01,0,10.89-4.87,10.89-10.89v-20.76H.5Z"/><rect class="cls-3" x=".5" y=".5" width="335" height="131.36" rx="11.46" ry="11.46"/><path class="cls-2" d="M139.18,39.64c-.33,2.33-1.69,4.52-3.59,5.75-2.66,1.73-6.15,1.92-7.79,1.92-1.92,0-5.17-.25-7.25-1.92-1.37-1.07-2.38-3.14-2.01-5.75.63-4.52,4.37-5.78,5.51-6.16-3.6-1.73-3.15-4.9-3.06-5.53.31-2.2,1.7-3.96,3.41-5.09,1.98-1.35,5.25-1.7,7.2-1.7,8.7,0,8.64,5.31,8.43,6.79-.27,1.95-1.5,4.27-4.61,5.53,1.03.38,4.42,1.63,3.78,6.16ZM124.38,38.98c-.37,2.67,1.97,3.58,4.08,3.58s4.68-.91,5.05-3.58c.14-1-.03-3.58-4.05-3.58s-4.94,2.54-5.08,3.58ZM126.6,28.89c-.06.41-.35,2.98,3.33,2.98s4.13-2.51,4.19-2.95c.16-1.13-.29-3.05-3.32-3.05s-4.04,1.88-4.2,3.02Z"/><path class="cls-2" d="M150.08,38.76c-2.03,6.35-5.66,9.02-7.55,10.37-.61-.97-2.14-2.61-3.41-3.3,6.2-3.83,6.98-9.8,7.42-12.94l1.67-11.91h19.38l-3.26,23.28c-.48,3.39-1.47,4.74-7.59,4.49.11-1.48-.3-4.05-.83-5.15.48.09,1.75.34,2.49.34,1.05,0,1.21-.66,1.37-1.79l.47-3.39h-10.16ZM160.86,34.23l.32-2.26h-9.81l-.32,2.26h9.81ZM161.79,27.64l.31-2.23h-9.81l-.31,2.23h9.81Z"/><path class="cls-2" d="M184.8,48.97h-4.71l1.28-9.14h-6.29l-.18,1.29h-4.83l2.12-15.14h11.12l.81-5.78,5.07.28c.15,0,.49.03.44.38s-.5.47-.97.53l-.64,4.59h11.11l-2.12,15.14h-4.74l.18-1.29h-6.38l-1.28,9.14ZM182.71,30.24h-6.29l-.71,5.09h6.29l.71-5.09ZM186.71,35.33h6.38l.71-5.09h-6.38l-.71,5.09Z"/><path class="cls-2" d="M230.08,23.61c-3.33,23.78-4.14,26.04-12.51,25.64-.13-1.73-.5-3.05-1.51-4.49,1.24.19,2.66.25,3.18.25.99,0,2.42,0,3.4-3.27,1.11-3.74,2.05-10.65,2.49-13.82h-15.54c-.76,1.23-1,1.63-1.24,1.98h12.17l-2.04,14.55h-9.07l-.17,1.19h-4.49l1.87-13.35c-1.06,1.35-1.71,2.01-2.32,2.64-1.4-1.29-2.35-1.79-3.77-2.23,3.18-3.02,5.86-6.22,8.18-13.07l4.3.91c.36.06.84.19.78.6-.04.31-.46.44-1.17.6-.23.54-.33.82-.82,1.88h18.27ZM214.81,38.92h-4.61l-.26,1.88h4.61l.26-1.88ZM210.65,35.65h4.61l.26-1.82h-4.61l-.26,1.82Z"/><path class="cls-2" d="M243.99,27.6c.21.02.38.07.35.33-.05.33-.29.4-.48.45-.43,1.71-.59,2.58-.69,3.12,2.46-.05,4.97-.42,7.43-1.18-.29.92-.72,3.13-.8,4.04-2.28.59-5.82.87-7.25.89-.1.92-.39,3.45-.28,4.51,2.2.3,6.46,2.77,7.83,3.9-.64.61-1.77,1.76-2.91,3.27-.47-.42-3.08-2.65-5.13-3.38-.07.66-.23,1.83-1.33,2.87-1.44,1.39-3.81,1.46-4.53,1.46-2.92,0-6.59-1.2-6.13-4.49.49-3.48,5.23-4.3,7.87-4.3.3,0,.44.02.62.05.29-3.41.32-3.62,1-8.48.17-1.2.25-2.63.18-3.78l4.25.73ZM236.77,42.31c-1.23,0-2.65.38-2.77,1.24-.15,1.08,1.67,1.1,1.86,1.1,2.2,0,2.32-.87,2.5-2.14-.22-.07-.62-.21-1.59-.21Z"/><path class="cls-2" d="M259.19,27.93c.4.09.62.17.59.42-.04.31-.45.38-.61.4-.94,1.93-1.57,3.95-1.86,5.99-.14,1.03-.12,1.5-.08,2.09.24-.38.33-.56.71-1.24.47-.85.74-1.15.91-1.34.88.96,1.02,1.13,2.04,1.95-.46.61-2.34,3.15-3.22,5.95l-3.37.4c-.99-4-.62-7.33-.42-8.72.26-1.88.67-3.31,1.58-5.8.19-.52.2-.63.29-.92l3.45.82ZM269.89,27.06c.23,0,.53.02.49.33-.04.26-.25.31-.42.35-.09.82-.29,4.39-.35,5.12-.05.85-.14,1.83-.27,2.75-.42,2.96-1.49,9-8.78,12.92-1.15-1.9-2.15-2.47-2.62-2.75,5.94-2.73,7.04-6.79,7.52-10.25.4-2.89.67-5.8.32-8.6l4.1.12Z"/><path class="cls-2" d="M130.94,63.19c.72,0,.9-.14,1.16-.33l2.12,1.69c-.79.99-1.04,1.46-1.92,3.12-2.47,4.72-4.23,7.4-7.15,9.7-.57.45-3.56,2.77-6.88,4.14-.57-1.39-1.3-2.26-2.2-3.1,3.7-1.32,6.66-3.45,7.97-4.7,1.47-1.41,3.66-4.3,4.73-7.14h-13.43l.47-3.38h15.12ZM137.04,61.59c-.17,1.22-1.28,2.21-2.49,2.21s-2.04-.99-1.87-2.21c.17-1.25,1.28-2.21,2.48-2.21s2.04.96,1.87,2.21ZM133.84,61.59c-.08.56.29,1.03.87,1.03s1.08-.47,1.16-1.03c.08-.59-.32-1.03-.87-1.03s-1.08.45-1.16,1.03Z"/><path class="cls-2" d="M144.04,61.45c.3.02.48.02.45.23-.04.28-.38.42-.55.49l-1.9,13.56c3.42-.94,9.19-3.97,13.3-8.53.34,1.57.54,2.25,1.19,3.71-2.82,2.61-6.65,6.13-16.78,9.92l-2.1-2.35c.09-.33.24-1.08.29-1.41l2.21-15.81,3.89.19Z"/><path class="cls-2" d="M158.6,68.55l.5-3.55h10.37l.64-4.56,3.83.23c.25.02.44.02.4.26-.03.21-.3.35-.5.42l-.51,3.64h4.79l-.5,3.55h-4.79l-1.36,9.68c-.16,1.17-.54,2.02-1.9,2.63-.25.12-1.5.66-3.8.54-.03-1.74-.19-2.58-.79-3.97.81.19,1.19.26,1.7.26.95,0,1.06-.45,1.19-1.39l.6-4.25c-3.97,4.39-7.9,6.32-9.24,6.98-.07-.14-.82-1.95-2.08-2.98,4.61-1.88,8.18-5.19,10.03-7.5h-8.59Z"/><path class="cls-2" d="M200.18,69.06l-.56,4h-20.12l.56-4h20.12Z"/><path class="cls-2" d="M217.53,63.19c.72,0,.9-.14,1.16-.33l2.12,1.69c-.79.99-1.04,1.46-1.92,3.12-2.47,4.72-4.23,7.4-7.15,9.7-.57.45-3.56,2.77-6.88,4.14-.57-1.39-1.3-2.26-2.2-3.1,3.7-1.32,6.66-3.45,7.97-4.7,1.47-1.41,3.66-4.3,4.73-7.14h-13.43l.47-3.38h15.12ZM223.64,61.59c-.17,1.22-1.28,2.21-2.49,2.21s-2.04-.99-1.87-2.21c.17-1.25,1.28-2.21,2.48-2.21s2.04.96,1.87,2.21ZM220.44,61.59c-.08.56.29,1.03.87,1.03s1.08-.47,1.16-1.03c.08-.59-.32-1.03-.87-1.03s-1.08.45-1.16,1.03Z"/><path class="cls-2" d="M223.39,77.19c6.79-1.39,13.93-5.92,18.99-12.64.77,1.6,1.08,2.19,1.94,3.2-1.63,2.02-4.17,4.98-8.29,7.82-2.33,1.62-6.36,3.9-10.27,5.24-.04.26-.19.52-.4.52-.14,0-.22-.07-.32-.33l-1.64-3.81ZM227.56,60.96c3.61,2.02,4.65,3.2,5.25,3.85-.65.68-.85.94-2.69,3.2-2.17-2.16-4.23-3.22-5.31-3.76l2.75-3.29Z"/><path class="cls-2" d="M265.66,68.36l1.45,1.71c-2.17,3.08-4.48,5.24-6.44,7-.73-1.08-1.34-1.64-2.46-2.28,1.57-1.1,2.65-2.23,3.38-3.13h-3.8l-1.01,7.19c-.37,2.63-2.03,2.94-5.75,2.87.02-.8,0-2.14-.65-3.45.72.14,1.29.19,1.85.19,1,0,1.16-.33,1.31-1.39l.76-5.4h-8.89l.46-3.31h9.56c-1.03-.54-1.79-.94-4.76-2.07l2.54-2.44h-4.54l.42-3.01h15.12l1.04,1.81c-1.36,1.27-3.81,2.89-5.63,4.02.79.47.98.63,1.18.8-.38.26-.69.45-1.26.89h6.11ZM253.46,63.85c.39.16,2.11.8,3.27,1.29,1.01-.61,1.43-.94,1.89-1.29h-5.16Z"/><path class="cls-2" d="M280.05,71.65h6.09l-.43,3.08h-6.09l-.49,3.5c.58.02,1.24.05,2.15.05,2.18,0,2.55-.02,7.19-.4-1.08,1.95-1.25,2.84-1.35,3.67h-9.05c-4.24,0-5.83-2.35-6.37-3.29-1.13,1.97-2.23,3.17-2.7,3.71-1.08-.89-1.32-.99-3.11-1.46,1-1.01,3.99-4.02,5.3-9.73l3.48.63c.2.05.45.09.41.38-.03.24-.18.28-.71.47-.2.59-.4,1.17-.86,2.3.28,1.01.63,2.28,2.17,3.05l1.14-8.13h-6l.25-1.79h-2.89l.76-5.45h8.77l.31-2.21,3.51.23c.32.02.62.05.59.28-.03.19-.16.28-.7.52l-.17,1.18h8.89l-.75,5.36h-2.68l-.26,1.88h-6.09l-.3,2.16ZM286.13,66.46l.19-1.36h-14.42l-.19,1.36h14.42Z"/><path class="cls-2" d="M294.49,76h3.89l-.56,3.97h-3.89l.56-3.97ZM300.42,61.45l-.77,5.47-1.8,6.91h-2.22l.11-6.91.77-5.47h3.91Z"/><path class="cls-1" d="M14.01,122.78l-.11.77h-2.31l.89-6.38h6l-.85,6.09h-2.24l.07-.47h-1.46ZM19.56,110.17l-.25,1.81h-6.47l.25-1.81h6.47ZM18.29,114.8l-.25,1.81h-5.15l.25-1.81h5.15ZM18.61,112.47l-.25,1.81h-5.15l.25-1.81h5.15ZM19.25,107.9l-.25,1.79h-5.15l.25-1.79h5.15ZM15.75,120.81l.22-1.55h-1.46l-.22,1.55h1.46ZM24.38,110.17c.04-.05.98-1.46,1.63-2.99l2.29.95c.11.05.29.14.27.28-.02.16-.17.19-.59.26-.18.32-.48.81-.97,1.5h1.47l-.3,2.15h-2.98l-.21,1.53h2.6l-.29,2.08h-2.6l-.22,1.6h3.36l-.31,2.22h-3.36l-.53,3.8h-2.58l.53-3.8h-3.05l.31-2.22h3.05l.22-1.6h-2.5l.29-2.08h2.5l.21-1.53h-2.9l.3-2.15h1.39c-.08-.14-.43-.88-1.11-1.74l2.14-1.2c.79,1.02,1.16,1.64,1.46,2.3-.3.16-.54.3-1.13.63h1.59Z"/><path class="cls-1" d="M35.33,108.08c.26.03.39.05.37.25-.02.16-.15.21-.37.3-.71,2.08-1.23,4.85-1.53,6.98-.56,3.99-.28,4.73,1.05,4.73,2.96,0,6.15-4.06,6.76-5.05.35.58.98,1.55,1.69,2.3-2.43,3.25-5.72,5.7-9.22,5.7-3.85,0-3.7-3.31-3.08-7.7.14-1.02.94-5.47,1.06-6.37.07-.51.15-1.11.19-1.62l3.09.47Z"/><path class="cls-1" d="M57.17,108.87c.09.09.15.16.14.26-.02.16-.15.19-.24.19s-.19-.03-.28-.07c-.39.33-3.53,2.57-4.19,3.08-.89.69-1.98,1.53-2.71,2.11-.63.51-.69.58-.71.72-.02.18.04.23.66.62.05.03,1.49,1.11,2.88,2.32,1.74,1.53,2.45,2.43,3.11,3.45-.78.63-1.42,1.23-2.33,2.38-.6-1.14-3.03-4.2-7.68-7.56-.16-.11-.53-.44-.44-1.04.06-.46.16-.67,2.11-2.08,2.66-1.9,5.18-3.97,7.49-6.31l2.19,1.93Z"/><path class="cls-1" d="M64.3,108.75c.13.05.21.12.19.25-.03.21-.36.25-.52.26-1.55,3.62-1.91,6.23-1.99,6.77-.12.88-.11,1.28-.12,1.76.27-.33.72-.9.99-1.25.25.67.58,1.21,1,1.74-.42.51-1.77,2.22-2.04,4.31l-2.38.44c-.12-.84-.47-3.34.06-7.09.25-1.79.89-4.96,2.17-8.06l2.65.86ZM72.59,108.36c.08.02.22.04.2.19-.03.21-.28.26-.44.28-.11.39-.25.88-.47,2.11,1.39-.25,2-.44,2.66-.65l-.37,2.66c-.41.11-1.24.3-2.71.56-.24,1.74-.31,3.45-.29,4.05,1.27.46,2.49,1.18,3.04,1.81-.35.51-1.03,1.65-1.53,2.48-.48-.54-.98-1.02-1.67-1.34-.38,2.25-2.64,2.51-3.73,2.51-2.6,0-3.7-1.44-3.47-3.08.29-2.09,2.45-2.88,4.7-2.83.14-2,.16-2.23.26-3.25-1,.09-1.71.09-2.01.09-.55,0-.92-.02-1.27-.05l.39-2.76c.61.07,1.48.19,3.24.12.1-.74.32-2.29.5-3.43l2.98.53ZM67.47,119.26c-.38,0-1.23.12-1.31.67-.06.46.48.65,1.03.65.14,0,1.18,0,1.3-.86.01-.09.02-.16,0-.23-.2-.09-.49-.23-1.03-.23Z"/><path class="cls-1" d="M75.41,122.17l1.94-13.86h3.12l-1.58,11.28h7l-.36,2.59h-10.12Z"/><path class="cls-1" d="M90.5,122.17h-3.22l1.94-13.86h3.22l-1.94,13.86Z"/><path class="cls-1" d="M102.87,122.17l-5.58-9.43-1.22,9.43h-3.07l1.94-13.86h2.96l5.58,9.43,1.22-9.43h3.07l-1.94,13.86h-2.96Z"/><path class="cls-1" d="M119.76,119.69l-.35,2.48h-11.2l1.94-13.86h10.97l-.35,2.48h-7.85l-.44,3.11h6.93l-.33,2.37h-6.93l-.48,3.41h8.08Z"/><path class="cls-1" d="M128.92,109.68c.08.05.12.14.11.23-.02.14-.15.18-.24.21-.15.05-.23.05-.32.09-1.4,2.53-4.35,5.47-5.61,6.24-.58-.93-1.16-1.39-1.88-1.79,1.99-1.35,3.93-2.94,5.67-6.21l2.27,1.23ZM131.97,115.38c1.93,2.83,2.89,5.01,3.58,6.72-1.13.39-1.83.79-2.63,1.44-.2-.67-.32-1.06-.53-1.55-3.93.56-7.99.88-9.8,1-.02.12-.12.47-.38.47-.16,0-.23-.12-.24-.39l-.23-2.57c.85-.02,1.25-.04,1.88-.05,1.92-3.08,3.57-6.33,4.34-8.11l2.54.92c.08.04.23.09.21.26-.04.26-.38.26-.56.28-.47.88-2.03,3.83-3.77,6.49.44-.04,3.19-.25,5.04-.48-.78-1.5-1.23-2.22-1.73-2.99l2.27-1.46ZM134.35,107.85c.04,3.15,1.3,4.73,3.61,6.54-.94.54-1.44,1.02-2.05,1.88-.84-.56-3.18-2.45-4.04-6.16h-2.57l.32-2.27h4.73Z"/><path class="cls-1" d="M143.66,120.23c1.35-.23,2.4-.42,3.2-.58-.32.69-.5,1.69-.55,2.3-3.45.74-4.44.9-7.69,1.34-.06.19-.16.51-.43.51-.14,0-.21-.11-.23-.35l-.18-2.46c.9-.09,1.9-.19,3.06-.33l.5-3.59h-2.6l.32-2.29h7.66l-.32,2.29h-2.31l-.44,3.17ZM152.02,107.18c1.45.88,2.05,1.48,2.36,1.81-.22.19-.53.47-1.34,1.51h2.25l-.34,2.44h-5.6c.12,2.97.54,4.45,1.39,6.14.2.41.58,1.09.85,1.09.26,0,.43-.33.55-.62.15-.32.32-.69.51-1.14.81,1.04,1.25,1.34,1.82,1.64-.35.98-1.2,3.36-3.02,3.36s-4.35-3.45-4.5-10.47h-7.83l.34-2.44h7.42c.06-.9.13-2.27.24-3.17l2.71.19c.1,0,.29.05.27.21-.03.23-.33.39-.48.46-.09.74-.18,1.57-.22,2.3h2.67c-.78-.84-1.35-1.25-1.73-1.51l1.68-1.81Z"/><path class="cls-1" d="M165.39,111.95c.12,0,.31.02.28.21-.02.18-.26.26-.35.3-.34,1.94-.93,3.91-1.64,5.26-.95,1.81-2.89,4.03-5.08,5.21-.74-.79-1.23-1.21-2.17-1.86,2.62-1.41,5.51-3.32,6.03-9.29l2.92.18ZM170.06,108.6c.12,0,.55,0,.99-.16l1.67,1.79c-.21.25-.27.33-.75.92-2.76,3.34-4.44,4.87-5.48,5.8-.51-.81-.96-1.32-1.72-1.93,1.63-1.35,2.51-2.2,3.77-3.76h-11.6l.37-2.66h12.74Z"/><path class="cls-1" d="M183,107.83c.22.02.34.04.32.19-.03.21-.24.26-.39.32-.06.54-.16,1.27-.38,2.46h5.51c-1.2,7.48-1.7,8.69-2.26,9.67-.6,1.07-1.76,2.76-5.31,2.55.05-.86,0-1.5-.3-2.92.32.09.64.16,1.21.16,1.51,0,2.3,0,3.4-6.81h-2.88c-1.56,5.22-4.23,7.7-8.02,9.75-.35-.7-.79-1.39-1.72-2.11,4.31-2.16,5.85-4.29,6.93-7.63h-5.25l.37-2.66h5.51c.26-1.62.29-2.59.3-3.17l2.96.19Z"/><path class="cls-1" d="M201.95,110.28c.57,0,.78,0,1.31-.18l1.54,1.28c-.16.42-.9,2.3-1.05,2.69-1.32,3.08-2.64,5.38-5.16,7.51-1.73,1.46-2.94,1.92-3.38,2.09-.54-.83-.99-1.35-1.91-2.06,1.87-.58,4-2.16,5.22-3.59.81-.97,1.91-2.64,2.83-5.26h-8.29l-.53,3.76h-2.84l.88-6.26h5.43l.37-2.67,2.95.12c.14,0,.38.02.36.18-.03.19-.3.3-.43.33l-.29,2.04h3Z"/><path class="cls-1" d="M205.64,120.09c5.09-1.04,10.43-4.43,14.22-9.46.58,1.2.81,1.64,1.45,2.39-1.22,1.51-3.12,3.73-6.21,5.86-1.75,1.21-4.76,2.92-7.69,3.92-.03.19-.14.39-.3.39-.1,0-.17-.05-.24-.25l-1.23-2.85ZM208.77,107.94c2.7,1.51,3.48,2.39,3.93,2.88-.49.51-.64.7-2.02,2.39-1.63-1.62-3.16-2.41-3.97-2.81l2.06-2.46Z"/><path class="cls-1" d="M228.98,112.25c2.38,1.32,4.37,2.83,5.47,4.13-.94,1.14-1.04,1.27-1.98,2.46-.49-.54-2-2.18-4.86-3.91l-1.16,8.25h-2.93l2.17-15.53,2.91.14c.12,0,.33.02.3.19-.02.18-.22.25-.37.28l-.75,5.38,1.19-1.41Z"/><path class="cls-1" d="M246.34,107.67c.1.02.34.07.3.32-.03.25-.35.26-.47.26l-.52.86c.51-.07,2.19-.3,3.7-.83l-.36,2.6c-2.65.46-2.97.51-5.04.76-.26.37-.31.44-.85,1.21.67-.35,1.42-.35,1.56-.35.88,0,1.92.53,2.32,1.5,2.74-1.25,3.05-1.37,3.74-1.74l.63,2.81c-2.01.62-3.07.99-4.15,1.43-.04.51-.1,1.05-.17,1.58-.11.79-.22,1.28-.3,1.76-.55-.03-1.17-.03-1.73-.03s-.66,0-1.01.03c.15-.56.23-.91.4-2-1.17.67-2.36,1.41-2.46,2.13-.11.79,1.65.84,2.53.84,1.91,0,3.75-.32,5.67-.86-.35.88-.62,1.95-.72,2.8-1.63.37-3.28.51-4.91.51-1.16,0-5.67,0-5.23-3.11.29-2.08,3.29-3.82,5.32-4.82-.17-.77-.76-.88-1.18-.88-1.8,0-3.29,1.97-4.46,3.54l-2.21-1.39c1.32-1.23,3.39-3.66,4.18-4.73-.94.04-1.7.04-2.45.02l.37-2.55c.53.05,1.52.14,2.7.14.5,0,.71,0,.99-.02.83-1.35,1.04-1.83,1.24-2.3l2.56.53Z"/><path class="cls-1" d="M263.13,113.46h5.32l-.35,2.52h-5.51c-1.4,5.05-5.46,6.79-6.82,7.39-.74-1.37-1.51-1.95-1.82-2.2,2.11-.72,4.96-1.99,5.86-5.19h-6.59l.35-2.52h6.69l.27-1.95c-.48.09-2.38.42-4.16.51-.26-1-.45-1.5-.96-2.43,4.98,0,8.45-1.3,10.02-2.27l1.85,1.88c.08.07.12.14.1.26-.02.12-.13.19-.29.19-.07,0-.17-.02-.25-.07-1.2.62-2.91,1.09-3.34,1.21l-.37,2.66Z"/><path class="cls-1" d="M276.68,119.88h4.71l-.33,2.37h-11.82l.33-2.37h4.58l.78-5.59h-3.31l.34-2.46h9.26l-.34,2.46h-3.42l-.78,5.59Z"/><path class="cls-1" d="M287.37,111.74c.41.88.93,2.41,1.14,3.22-.46.16-1.5.56-2.35,1.09-.31-1.14-.74-2.29-1.16-3.36l2.37-.95ZM297.14,112.02c.18.05.31.11.29.26-.02.17-.27.19-.36.19-2.33,6.24-5.47,8.71-9.73,10.46-.16-.37-.56-1.23-1.37-1.99,4.68-1.74,7.23-4.13,8.76-9.73l2.4.79ZM291.02,110.93c.45.99.74,1.88.96,3.31-1.33.48-1.77.65-2.31.92-.2-.9-.7-2.46-1.05-3.29l2.4-.93Z"/><path class="cls-1" d="M311.37,110.1c.57,0,.9-.12,1.27-.26l1.26,1.25c-.39.53-1.78,2.94-2.31,3.83-3.52,6.09-7.64,8.04-9.28,8.81-.24-.39-.64-.97-1.96-2.01,2.79-1.12,5.16-3.06,6.22-4.17,1.65-1.72,2.74-3.85,3.27-4.93h-4.33c-1.34,1.67-2.87,3.17-4.53,4.5-.8-1-1.09-1.37-1.85-1.9,4.72-3.62,6.25-6.72,6.77-7.77l2.32,1.23c.06.04.21.12.19.26-.02.18-.27.23-.45.25-.35.54-.42.69-.58.9h3.97Z"/><path class="cls-1" d="M314.84,119.19h2.93l-.42,2.97h-2.93l.42-2.97ZM319.3,108.3l-.57,4.1-1.36,5.17h-1.66l.1-5.17.57-4.1h2.93Z"/><path class="cls-1" d="M320.11,119.19h2.93l-.42,2.97h-2.93l.42-2.97ZM324.56,108.3l-.57,4.1-1.37,5.17h-1.66l.1-5.17.57-4.1h2.93Z"/></g></g></svg>